<?xml version="1.0" encoding="UTF-8" standalone="no"?>
<svg
   width="16"
   height="16"
   viewBox="0 0 16 16"
   fill="none"
   version="1.1"
   id="svg146"
   sodipodi:docname="NewDocument(modifiedSequenceFile).svg"
   inkscape:version="1.2 (dc2aedaf03, 2022-05-15)"
   xmlns:inkscape="http://www.inkscape.org/namespaces/inkscape"
   xmlns:sodipodi="http://sodipodi.sourceforge.net/DTD/sodipodi-0.dtd"
   xmlns="http://www.w3.org/2000/svg"
   xmlns:svg="http://www.w3.org/2000/svg">
  <defs
     id="defs150" />
  <sodipodi:namedview
     id="namedview148"
     pagecolor="#ffffff"
     bordercolor="#000000"
     borderopacity="0.25"
     inkscape:showpageshadow="2"
     inkscape:pageopacity="0.0"
     inkscape:pagecheckerboard="0"
     inkscape:deskcolor="#d1d1d1"
     showgrid="false"
     inkscape:zoom="50"
     inkscape:cx="8"
     inkscape:cy="7.99"
     inkscape:window-width="1350"
     inkscape:window-height="1230"
     inkscape:window-x="1131"
     inkscape:window-y="261"
     inkscape:window-maximized="0"
     inkscape:current-layer="svg146" />
  <path
     d="M5 1C3.895 1 3 1.895 3 3V13C3 14.105 3.895 15 5 15H11C12.105 15 13 14.105 13 13V5.414C13 5.016 12.842 4.635 12.561 4.353L9.647 1.439C9.366 1.158 8.984 1 8.586 1H5ZM4 3C4 2.448 4.448 2 5 2H8V4.5C8 5.328 8.672 6 9.5 6H12V13C12 13.552 11.552 14 11 14H5C4.448 14 4 13.552 4 13V3ZM11.793 5H9.5C9.224 5 9 4.776 9 4.5V2.207L11.793 5Z"
     fill="#202020"
     id="path132" />
</svg>
