<?xml version="1.0" encoding="UTF-8" standalone="no"?>
<svg
   width="16"
   height="16"
   viewBox="0 0 16 16"
   fill="none"
   version="1.1"
   id="svg5431"
   sodipodi:docname="08-RemoveCommand(modifiedSmallerCircle).svg"
   inkscape:version="1.2 (dc2aedaf03, 2022-05-15)"
   xmlns:inkscape="http://www.inkscape.org/namespaces/inkscape"
   xmlns:sodipodi="http://sodipodi.sourceforge.net/DTD/sodipodi-0.dtd"
   xmlns="http://www.w3.org/2000/svg"
   xmlns:svg="http://www.w3.org/2000/svg">
  <defs
     id="defs5435" />
  <sodipodi:namedview
     id="namedview5433"
     pagecolor="#ffffff"
     bordercolor="#000000"
     borderopacity="0.25"
     inkscape:showpageshadow="2"
     inkscape:pageopacity="0.0"
     inkscape:pagecheckerboard="0"
     inkscape:deskcolor="#d1d1d1"
     showgrid="false"
     inkscape:zoom="64.1875"
     inkscape:cx="7.9922103"
     inkscape:cy="7.9922103"
     inkscape:window-width="3840"
     inkscape:window-height="2089"
     inkscape:window-x="-8"
     inkscape:window-y="-8"
     inkscape:window-maximized="1"
     inkscape:current-layer="svg5431" />
  <path
     d="M 5.5,7.5 C 5.22386,7.5 5,7.72386 5,8 5,8.27614 5.22386,8.5 5.5,8.5 h 5 C 10.7761,8.5 11,8.27614 11,8 11,7.72386 10.7761,7.5 10.5,7.5 Z"
     fill="#c50f1f"
     id="path5429"
     sodipodi:nodetypes="sssssss" />
  <path
     d="m 1.9999998,8 c 0,-3.31371 2.68629,-6 6,-6 C 11.3137,2 14,4.68629 14,8 c 0,3.3137 -2.6863,6 -6.0000002,6 -3.31371,0 -6,-2.6863 -6,-6 z m 6,-5 c -2.76142,0 -5,2.23858 -5,5 0,2.7614 2.23858,5 5,5 C 10.7614,13 13,10.7614 13,8 13,5.23858 10.7614,3 7.9999998,3 Z"
     fill="#11910d"
     id="path4578"
     sodipodi:nodetypes="ssssssssss"
     style="fill:#c50f1f;fill-opacity:1" />
</svg>
