<svg width="16" height="16" viewBox="0 0 16 16" fill="none" xmlns="http://www.w3.org/2000/svg">
<path d="M9.79297 6H12.5C12.7761 6 13 5.77614 13 5.5V3.5C13 3.22386 12.7761 3 12.5 3L9.79297 3C9.88412 3.32228 9.94663 3.65659 9.97758 4H12V5H9.97758C9.94663 5.34341 9.88412 5.67772 9.79297 6Z" fill="#159195"/>
<path d="M5.87949 9.82557C5.43866 9.93943 4.97641 10 4.5 10C4.02359 10 3.56134 9.93943 3.12051 9.82557C3.21221 9.93236 3.3482 10 3.5 10H4V12H3.5C3.22386 12 3 12.2239 3 12.5C3 12.7761 3.22386 13 3.5 13H4C4 14.1046 4.89543 15 6 15H13C14.1046 15 15 14.1046 15 13V3C15 1.89543 14.1046 1 13 1L8.74284 1C8.99647 1.30711 9.21739 1.64222 9.40029 2H13C13.5523 2 14 2.44772 14 3V13C14 13.5523 13.5523 14 13 14H6C5.44772 14 5 13.5523 5 13H5.5C5.77614 13 6 12.7761 6 12.5C6 12.2239 5.77614 12 5.5 12H5V10H5.5C5.6518 10 5.78779 9.93236 5.87949 9.82557Z" fill="#202020"/>
<path fill-rule="evenodd" clip-rule="evenodd" d="M1.99994 0.758387C2.73996 0.26392 3.60999 0 4.5 0C5.69348 0 6.83807 0.474106 7.68198 1.31802C8.5259 2.16193 9 3.30653 9 4.5C9 5.39002 8.73608 6.26004 8.24162 7.00007C7.74715 7.74009 7.04434 8.31686 6.22208 8.65746C5.39981 8.99805 4.49501 9.08717 3.6221 8.91353C2.74918 8.7399 1.94736 8.31132 1.31802 7.68198C0.688685 7.05264 0.260102 6.25082 0.0864683 5.37791C-0.0871652 4.50499 0.00194976 3.60019 0.342544 2.77792C0.683138 1.95566 1.25991 1.25285 1.99994 0.758387ZM6.5 5.5C6.5 5.76522 6.39464 6.01957 6.20711 6.20711C6.01957 6.39464 5.76522 6.5 5.5 6.5H3.5C3.23478 6.5 2.98043 6.39464 2.79289 6.20711C2.60536 6.01957 2.5 5.76522 2.5 5.5V3.5C2.5 3.23478 2.60536 2.98043 2.79289 2.79289C2.98043 2.60536 3.23478 2.5 3.5 2.5H5.5C5.76522 2.5 6.01957 2.60536 6.20711 2.79289C6.39464 2.98043 6.5 3.23478 6.5 3.5V5.5Z" fill="#C50F1F"/>
</svg>
