<svg width="16" height="16" viewBox="0 0 16 16" fill="none" xmlns="http://www.w3.org/2000/svg">
<path d="M8 15C4.141 15 1 11.859 1 8C1 4.141 4.141 1 8 1C8.181 1 8.36 1.007 8.538 1.021C8.813 1.042 9.019 1.283 8.998 1.558C8.977 1.834 8.719 2.04 8.462 2.018C8.31 2.006 8.155 2 8 2C4.691 2 2 4.691 2 8C2 11.309 4.691 14 8 14C11.309 14 14 11.309 14 8C14 7.844 13.993 7.689 13.982 7.536C13.962 7.26 14.17 7.021 14.446 7.002C14.692 6.978 14.961 7.189 14.98 7.465C14.993 7.642 15 7.821 15 8.001C15 11.86 11.859 15.001 8 15.001V15Z" fill="#202020"/>
<path d="M14.481 7.99997H9C8.448 7.99997 8 7.55097 8 6.99997V1.51897C8 1.37997 8.058 1.24697 8.16 1.15197C8.262 1.05697 8.395 1.00797 8.538 1.01997C11.95 1.27897 14.72 4.04897 14.98 7.46097C14.99 7.59997 14.942 7.73697 14.848 7.83897C14.753 7.94097 14.62 7.99997 14.481 7.99997ZM9 2.08297V6.99997H13.917C13.493 4.50397 11.496 2.50697 9 2.08297Z" fill="#3487C7"/>
</svg>
