<svg width="16" height="16" viewBox="0 0 16 16" fill="none" xmlns="http://www.w3.org/2000/svg">
<path d="M7.75 10H2.25C1.561 10 1 9.439 1 8.75V7.25C1 6.561 1.561 6 2.25 6H7.75C8.439 6 9 6.561 9 7.25V8.75C9 9.439 8.439 10 7.75 10ZM2.25 7C2.112 7 2 7.112 2 7.25V8.75C2 8.888 2.112 9 2.25 9H7.75C7.888 9 8 8.888 8 8.75V7.25C8 7.112 7.888 7 7.75 7H2.25Z" fill="#3487C7"/>
<path fill-rule="evenodd" clip-rule="evenodd" d="M2.25 5H10.75C11.439 5 12 4.439 12 3.75V2.25C12 1.561 11.439 1 10.75 1H2.25C1.561 1 1 1.561 1 2.25V3.75C1 4.439 1.561 5 2.25 5ZM2 2.25C2 2.112 2.112 2 2.25 2H10.75C10.888 2 11 2.112 11 2.25V3.75C11 3.888 10.888 4 10.75 4H2.25C2.112 4 2 3.888 2 3.75V2.25Z" fill="#202020"/>
<path fill-rule="evenodd" clip-rule="evenodd" d="M2.25 15H13.75C14.439 15 15 14.439 15 13.75V12.25C15 11.561 14.439 11 13.75 11H2.25C1.561 11 1 11.561 1 12.25V13.75C1 14.439 1.561 15 2.25 15ZM2 12.25C2 12.112 2.112 12 2.25 12H13.75C13.888 12 14 12.112 14 12.25V13.75C14 13.888 13.888 14 13.75 14H2.25C2.112 14 2 13.888 2 13.75V12.25Z" fill="#202020"/>
</svg>
