<svg width="16" height="16" viewBox="0 0 16 16" fill="none" xmlns="http://www.w3.org/2000/svg">
<g clip-path="url(#clip0_7202_69660)">
<path fill-rule="evenodd" clip-rule="evenodd" d="M5 5.91697C4.83975 5.97391 4.67047 6.00208 4.5 5.99997C4.32936 6.00056 4.16019 5.97146 4 5.91422V13C4 14.1046 4.89543 15 6 15H12C13.1046 15 14 14.1046 14 13V5.41421C14 5.01639 13.842 4.63486 13.5607 4.35355L10.6464 1.43934C10.3651 1.15804 9.98361 1 9.58579 1H7.11403L7.557 1.44297C7.69781 1.58055 7.80958 1.74499 7.88567 1.92655C7.89584 1.9508 7.90534 1.9753 7.91417 2H9V4.5C9 5.32843 9.67157 6 10.5 6H13V13C13 13.5523 12.5523 14 12 14H6C5.44772 14 5 13.5523 5 13V5.91697ZM10.5 5H12.7929L10 2.20711V4.5C10 4.77614 10.2239 5 10.5 5Z" fill="#202020"/>
<path d="M6.85 2.85003L4.85 4.85003C4.80488 4.89747 4.75059 4.93524 4.69042 4.96106C4.63026 4.98687 4.56547 5.00018 4.5 5.00018C4.43453 5.00018 4.36974 4.98687 4.30958 4.96106C4.24941 4.93524 4.19512 4.89747 4.15 4.85003C4.10256 4.80491 4.06478 4.75062 4.03897 4.69045C4.01316 4.63028 3.99985 4.5655 3.99985 4.50003C3.99985 4.43456 4.01316 4.36977 4.03897 4.3096C4.06478 4.24944 4.10256 4.19515 4.15 4.15003L5.29 3.00003H0.5C0.367392 3.00003 0.240215 2.94735 0.146447 2.85358C0.0526784 2.75981 0 2.63264 0 2.50003C0 2.36742 0.0526784 2.24024 0.146447 2.14647C0.240215 2.05271 0.367392 2.00003 0.5 2.00003H5.29L4.15 0.850028C4.10256 0.804911 4.06478 0.750619 4.03897 0.690452C4.01316 0.630285 3.99985 0.565498 3.99985 0.500028C3.99985 0.434558 4.01316 0.369771 4.03897 0.309604C4.06478 0.249437 4.10256 0.195146 4.15 0.150028C4.19512 0.102586 4.24941 0.0648117 4.30958 0.0389999C4.36974 0.0131882 4.43453 -0.00012207 4.5 -0.00012207C4.56547 -0.00012207 4.63026 0.0131882 4.69042 0.0389999C4.75059 0.0648117 4.80488 0.102586 4.85 0.150028L6.85 2.15003C6.89744 2.19515 6.93522 2.24944 6.96103 2.3096C6.98684 2.36977 7.00015 2.43456 7.00015 2.50003C7.00015 2.5655 6.98684 2.63028 6.96103 2.69045C6.93522 2.75062 6.89744 2.80491 6.85 2.85003V2.85003Z" fill="#006CBF"/>
</g>
<defs>
<clipPath id="clip0_7202_69660">
<rect width="16" height="16" fill="white"/>
</clipPath>
</defs>
</svg>
