<svg width="16" height="16" viewBox="0 0 16 16" fill="none" xmlns="http://www.w3.org/2000/svg">
<g clip-path="url(#clip0_7202_82350)">
<path d="M9.40029 7H13.5C13.7761 7 14 6.77614 14 6.5V4.5C14 4.22386 13.7761 4 13.5 4L9.97758 4C9.99242 4.16468 10 4.33146 10 4.5C10 4.66854 9.99242 4.83532 9.97758 5H13V6H9.79297C9.69436 6.34864 9.56223 6.68321 9.40029 7Z" fill="#159195"/>
<path d="M5 9.97758V10H4.5C4.22386 10 4 10.2239 4 10.5C4 10.7761 4.22386 11 4.5 11H5V13H4.5C4.22386 13 4 13.2239 4 13.5C4 13.7761 4.22386 14 4.5 14H5C5 15.1046 5.89543 16 7 16H14C15.1046 16 16 15.1046 16 14V4C16 2.89543 15.1046 2 14 2L9.40029 2C9.56223 2.31679 9.69436 2.65136 9.79297 3H14C14.5523 3 15 3.44772 15 4V14C15 14.5523 14.5523 15 14 15H7C6.44772 15 6 14.5523 6 14H6.5C6.77614 14 7 13.7761 7 13.5C7 13.2239 6.77614 13 6.5 13H6V11H6.5C6.77614 11 7 10.7761 7 10.5C7 10.2239 6.77614 10 6.5 10H6V9.79297C5.67772 9.88412 5.34341 9.94663 5 9.97758Z" fill="#202020"/>
<path fill-rule="evenodd" clip-rule="evenodd" d="M9 4.5C9 6.98528 6.98528 9 4.5 9C2.01472 9 0 6.98528 0 4.5C0 2.01472 2.01472 0 4.5 0C6.98528 0 9 2.01472 9 4.5ZM4.5 2C4.77614 2 5 2.22386 5 2.5V4H6.5C6.77614 4 7 4.22386 7 4.5C7 4.77614 6.77614 5 6.5 5H5V6.5C5 6.77614 4.77614 7 4.5 7C4.22386 7 4 6.77614 4 6.5V5H2.5C2.22386 5 2 4.77614 2 4.5C2 4.22386 2.22386 4 2.5 4H4V2.5C4 2.22386 4.22386 2 4.5 2Z" fill="#11910D"/>
</g>
<defs>
<clipPath id="clip0_7202_82350">
<rect width="16" height="16" fill="white"/>
</clipPath>
</defs>
</svg>
