<svg width="16" height="16" viewBox="0 0 16 16" fill="none" xmlns="http://www.w3.org/2000/svg">
<g clip-path="url(#clip0_7204_97946)">
<path d="M4.59984 9.99911C4.56663 9.9997 4.53335 10 4.5 10C4.18315 10 3.87256 9.97321 3.57037 9.92176C4.01382 12.7979 6.49974 15 9.5 15C12.8137 15 15.5 12.3137 15.5 9C15.5 5.78519 12.9717 3.16091 9.79498 3.00713C9.88704 3.33431 9.94959 3.67385 9.97958 4.0227C12.516 4.26407 14.5 6.40034 14.5 9C14.5 11.7614 12.2614 14 9.5 14C7.08073 14 5.06277 12.2818 4.59984 9.99911Z" fill="#202020"/>
<path d="M9 7.66308V9.5C9 9.77614 9.22386 10 9.5 10C9.77614 10 10 9.77614 10 9.5V5.5C10 5.41857 9.98053 5.34168 9.946 5.27375C9.82202 6.15434 9.4895 6.96796 9 7.66308Z" fill="#202020"/>
<path d="M9.40029 2H11.5C11.7761 2 12 1.77614 12 1.5C12 1.22386 11.7761 1 11.5 1L8.74284 1C8.99647 1.30711 9.21739 1.64222 9.40029 2Z" fill="#202020"/>
<path d="M13.7461 2.64188C13.9413 2.44662 14.2579 2.44662 14.4532 2.64188L15.8561 4.04478C16.0513 4.24005 16.0513 4.55663 15.8561 4.75189C15.6608 4.94715 15.3442 4.94715 15.149 4.75189L13.7461 3.34899C13.5508 3.15373 13.5508 2.83715 13.7461 2.64188Z" fill="#202020"/>
<path fill-rule="evenodd" clip-rule="evenodd" d="M1.99994 0.758387C2.73996 0.26392 3.60999 0 4.5 0C5.69348 0 6.83807 0.474106 7.68198 1.31802C8.5259 2.16193 9 3.30653 9 4.5C9 5.39002 8.73608 6.26004 8.24162 7.00007C7.74715 7.74009 7.04434 8.31686 6.22208 8.65746C5.39981 8.99805 4.49501 9.08717 3.6221 8.91353C2.74918 8.7399 1.94736 8.31132 1.31802 7.68198C0.688685 7.05264 0.260102 6.25082 0.0864683 5.37791C-0.0871652 4.50499 0.00194976 3.60019 0.342544 2.77792C0.683138 1.95566 1.25991 1.25285 1.99994 0.758387ZM6.5 5.5C6.5 5.76522 6.39464 6.01957 6.20711 6.20711C6.01957 6.39464 5.76522 6.5 5.5 6.5H3.5C3.23478 6.5 2.98043 6.39464 2.79289 6.20711C2.60536 6.01957 2.5 5.76522 2.5 5.5V3.5C2.5 3.23478 2.60536 2.98043 2.79289 2.79289C2.98043 2.60536 3.23478 2.5 3.5 2.5H5.5C5.76522 2.5 6.01957 2.60536 6.20711 2.79289C6.39464 2.98043 6.5 3.23478 6.5 3.5V5.5Z" fill="#C50F1F"/>
</g>
<defs>
<clipPath id="clip0_7204_97946">
<rect width="16" height="16" fill="white"/>
</clipPath>
</defs>
</svg>
